<svg width="2909" height="2917" viewBox="0 0 2909 2917" fill="none" xmlns="http://www.w3.org/2000/svg">
<path d="M709.131 1204.36C656.108 1221.38 596.239 1182.59 575.425 1117.73C548.394 1033.53 566.521 942.307 619.554 925.291C672.577 908.265 742.379 978.016 767.444 1056.09C788.259 1120.96 762.165 1187.33 709.131 1204.36Z" fill="#2C6E91" fill-opacity="0.3"/>
<path d="M1190.37 1404.22C1112.68 1417.33 1076.59 1388.48 1026.77 1396.88C976.934 1405.29 952.321 1444.39 874.634 1457.49C772.932 1474.64 676.17 1361.12 754.31 1262.08C851.421 1139.02 862.024 1003.05 957.602 986.93C1053.19 970.81 1107.81 1095.77 1239.92 1180.16C1346.22 1248.08 1292.06 1387.07 1190.37 1404.22Z" fill="#2C6E91" fill-opacity="0.3"/>
<path d="M953.999 813.603C947.308 731.881 985.148 640.74 1040.64 636.19C1096.16 631.65 1147.78 709.008 1155 797.143C1160.55 865.041 1120.07 923.767 1064.56 928.306C1009.06 932.857 959.558 881.501 953.999 813.603Z" fill="#2C6E91" fill-opacity="0.3"/>
<path d="M708.874 872.401C686.784 786.778 710.171 696.759 764.1 682.852C818.019 668.935 883.662 742.618 904.147 822.013C921.173 887.975 891.259 952.723 837.34 966.64C783.411 980.558 725.9 938.364 708.874 872.401Z" fill="#2C6E91" fill-opacity="0.3"/>
<path d="M1263.66 1110.81C1207.98 1112.12 1161.54 1057.98 1159.93 989.874C1157.99 907.905 1201.06 819.111 1256.73 817.804C1312.41 816.486 1359.46 896.706 1361.55 985.109C1363.16 1053.21 1319.33 1109.49 1263.66 1110.81Z" fill="#2C6E91" fill-opacity="0.3"/>
<path d="M2141.11 1401.86C2213.08 1505.47 2109.59 1612.88 2009.12 1589.58C1932.38 1571.76 1910.19 1531.24 1860.96 1519.82C1811.74 1508.39 1773.97 1535 1697.22 1517.19C1596.76 1493.88 1551.15 1351.84 1661.4 1290.52C1798.4 1214.33 1860.53 1092.92 1954.94 1114.84C2049.37 1136.76 2051.68 1273.11 2141.11 1401.86Z" fill="#2C6E91" fill-opacity="0.3"/>
<path d="M2328.45 1268.66C2303.73 1332.13 2241.62 1367.2 2189.72 1346.99C2137.83 1326.77 2115.82 1258.92 2140.54 1195.44C2170.31 1119.04 2244.24 1053.67 2296.13 1073.89C2348.01 1094.11 2360.56 1186.26 2328.45 1268.66Z" fill="#2C6E91" fill-opacity="0.3"/>
<path d="M1769.47 913.391C1782.04 825.853 1838.29 751.779 1893.41 759.695C1948.53 767.611 1980.75 860.883 1969.1 942.049C1959.41 1009.48 1906.87 1057.73 1851.76 1049.81C1796.64 1041.9 1759.8 980.815 1769.47 913.391Z" fill="#2C6E91" fill-opacity="0.3"/>
<path d="M2018.34 953.475C2043.63 875.479 2113.63 805.924 2166.6 823.105C2219.59 840.275 2237.46 931.55 2210.19 1015.66C2189.18 1080.47 2129.21 1119.08 2076.23 1101.9C2023.25 1084.74 1997.33 1018.29 2018.34 953.475Z" fill="#2C6E91" fill-opacity="0.3"/>
<path d="M1641.92 1219.86C1586.44 1215.15 1546.11 1156.31 1551.86 1088.44C1559.33 1000.32 1611.18 923.109 1666.67 927.813C1722.16 932.517 1759.74 1023.76 1752.82 1105.46C1747.06 1173.34 1697.42 1224.56 1641.92 1219.86Z" fill="#2C6E91" fill-opacity="0.3"/>
<path d="M1988.79 2136.55C1988.79 2216.13 1924.27 2280.65 1844.68 2280.65C1765.1 2280.65 1700.58 2216.13 1700.58 2136.55C1700.58 2127.24 1701.47 2118.14 1703.15 2109.32H1202.22C1203.91 2118.14 1204.79 2127.24 1204.79 2136.55C1204.79 2216.13 1140.27 2280.65 1060.69 2280.65C981.104 2280.65 916.586 2216.13 916.586 2136.55C916.586 2088.16 940.439 2045.34 977.03 2019.21C940.438 1993.07 916.586 1950.26 916.586 1901.87C916.586 1822.28 981.104 1757.76 1060.69 1757.76C1140.27 1757.76 1204.79 1822.28 1204.79 1901.87C1204.79 1911.18 1203.91 1920.28 1202.22 1929.09H1703.15C1701.47 1920.28 1700.58 1911.18 1700.58 1901.87C1700.58 1822.28 1765.1 1757.76 1844.68 1757.76C1924.27 1757.76 1988.79 1822.28 1988.79 1901.87C1988.79 1950.26 1964.94 1993.07 1928.34 2019.21C1964.94 2045.34 1988.79 2088.16 1988.79 2136.55Z" fill="#2C6E91" fill-opacity="0.3"/>
</svg>
